<svg width="430" height="600" viewBox="0 0 430 600" fill="none" xmlns="http://www.w3.org/2000/svg">
<g clip-path="url(#clip0_1_2)">
<rect width="430" height="600" fill="url(#paint0_linear_1_2)"/>
<path d="M7 584.625V529.5H14.875V545.25H38.5V529.5H46.375V584.625H38.5V553.125H14.875V584.625H7ZM54.25 584.625V537.375H62.125V545.25H85.75V537.375H93.625V584.625H85.75V553.125H62.125V584.625H54.25ZM62.125 537.375V529.5H85.75V537.375H62.125ZM109.375 584.625V576.75H133V584.625H109.375ZM133 576.75V568.875H140.875V576.75H133ZM101.5 576.75V537.375H109.375V576.75H101.5ZM133 545.25V537.375H140.875V545.25H133ZM109.375 537.375V529.5H133V537.375H109.375ZM180.25 584.625V561H188.125V584.625H180.25ZM172.375 561V553.125H180.25V561H172.375ZM172.375 545.25V537.375H180.25V545.25H172.375ZM148.75 584.625V529.5H156.625V545.25H172.375V553.125H156.625V584.625H148.75ZM180.25 537.375V529.5H188.125V537.375H180.25ZM196 584.625V537.375H203.875V545.25H227.5V537.375H235.375V584.625H227.5V553.125H203.875V584.625H196ZM203.875 537.375V529.5H227.5V537.375H203.875ZM259 584.625V537.375H243.25V529.5H282.625V537.375H266.875V584.625H259ZM290.5 584.625V529.5H298.375V545.25H322V529.5H329.875V584.625H322V553.125H298.375V584.625H290.5ZM345.625 584.625V576.75H369.25V584.625H345.625ZM337.75 576.75V537.375H345.625V576.75H337.75ZM369.25 576.75V537.375H377.125V576.75H369.25ZM345.625 537.375V529.5H369.25V537.375H345.625ZM400.75 553.125V545.25H408.625V553.125H400.75ZM385 584.625V529.5H392.875V537.375H400.75V545.25H392.875V584.625H385ZM416.5 584.625V561H408.625V553.125H416.5V529.5H424.375V584.625H416.5Z" fill="black" fill-opacity="0.1"/>
<path d="M7 671.625V616.5H14.875V632.25H38.5V616.5H46.375V671.625H38.5V640.125H14.875V671.625H7ZM54.25 671.625V624.375H62.125V632.25H85.75V624.375H93.625V671.625H85.75V640.125H62.125V671.625H54.25ZM62.125 624.375V616.5H85.75V624.375H62.125ZM109.375 671.625V663.75H133V671.625H109.375ZM133 663.75V655.875H140.875V663.75H133ZM101.5 663.75V624.375H109.375V663.75H101.5ZM133 632.25V624.375H140.875V632.25H133ZM109.375 624.375V616.5H133V624.375H109.375ZM180.25 671.625V648H188.125V671.625H180.25ZM172.375 648V640.125H180.25V648H172.375ZM172.375 632.25V624.375H180.25V632.25H172.375ZM148.75 671.625V616.5H156.625V632.25H172.375V640.125H156.625V671.625H148.75ZM180.25 624.375V616.5H188.125V624.375H180.25ZM196 671.625V624.375H203.875V632.25H227.5V624.375H235.375V671.625H227.5V640.125H203.875V671.625H196ZM203.875 624.375V616.5H227.5V624.375H203.875ZM259 671.625V624.375H243.25V616.5H282.625V624.375H266.875V671.625H259ZM290.5 671.625V616.5H298.375V632.25H322V616.5H329.875V671.625H322V640.125H298.375V671.625H290.5ZM345.625 671.625V663.75H369.25V671.625H345.625ZM337.75 663.75V624.375H345.625V663.75H337.75ZM369.25 663.75V624.375H377.125V663.75H369.25ZM345.625 624.375V616.5H369.25V624.375H345.625ZM400.75 640.125V632.25H408.625V640.125H400.75ZM385 671.625V616.5H392.875V624.375H400.75V632.25H392.875V671.625H385ZM416.5 671.625V648H408.625V640.125H416.5V616.5H424.375V671.625H416.5Z" fill="url(#paint1_linear_1_2)" fill-opacity="0.05"/>
</g>
<defs>
<linearGradient id="paint0_linear_1_2" x1="215" y1="90.5" x2="215" y2="869.742" gradientUnits="userSpaceOnUse">
<stop stop-color="#E7E6E6"/>
<stop offset="1" stop-color="#4ADE80"/>
</linearGradient>
<linearGradient id="paint1_linear_1_2" x1="245" y1="264" x2="245" y2="699" gradientUnits="userSpaceOnUse">
<stop stop-color="white"/>
<stop offset="1" stop-color="#E8E8E8"/>
</linearGradient>
<clipPath id="clip0_1_2">
<rect width="430" height="600" fill="white"/>
</clipPath>
</defs>
</svg>
