<svg width="1280" height="832" viewBox="0 0 1280 832" fill="none" xmlns="http://www.w3.org/2000/svg">
<g clip-path="url(#clip0_317_683)">
<rect width="1280" height="832" fill="url(#paint0_linear_317_683)"/>
<path d="M-36 602.851V426.243H-10.7702V476.702H64.9191V426.243H90.1489V602.851H64.9191V501.932H-10.7702V602.851H-36ZM115.379 602.851V451.472H140.608V476.702H216.298V451.472H241.528V602.851H216.298V501.932H140.608V602.851H115.379ZM140.608 451.472V426.243H216.298V451.472H140.608ZM291.987 602.851V577.621H367.676V602.851H291.987ZM367.676 577.621V552.392H392.906V577.621H367.676ZM266.757 577.621V451.472H291.987V577.621H266.757ZM367.676 476.702V451.472H392.906V476.702H367.676ZM291.987 451.472V426.243H367.676V451.472H291.987ZM519.055 602.851V527.162H544.285V602.851H519.055ZM493.825 527.162V501.932H519.055V527.162H493.825ZM493.825 476.702V451.472H519.055V476.702H493.825ZM418.136 602.851V426.243H443.366V476.702H493.825V501.932H443.366V602.851H418.136ZM519.055 451.472V426.243H544.285V451.472H519.055ZM569.515 602.851V451.472H594.744V476.702H670.434V451.472H695.664V602.851H670.434V501.932H594.744V602.851H569.515ZM594.744 451.472V426.243H670.434V451.472H594.744ZM771.353 602.851V451.472H720.893V426.243H847.042V451.472H796.583V602.851H771.353ZM872.272 602.851V426.243H897.502V476.702H973.191V426.243H998.421V602.851H973.191V501.932H897.502V602.851H872.272ZM1048.88 602.851V577.621H1124.57V602.851H1048.88ZM1023.65 577.621V451.472H1048.88V577.621H1023.65ZM1124.57 577.621V451.472H1149.8V577.621H1124.57ZM1048.88 451.472V426.243H1124.57V451.472H1048.88ZM1225.49 501.932V476.702H1250.72V501.932H1225.49ZM1175.03 602.851V426.243H1200.26V451.472H1225.49V476.702H1200.26V602.851H1175.03ZM1275.95 602.851V527.162H1250.72V501.932H1275.95V426.243H1301.18V602.851H1275.95Z" fill="black" fill-opacity="0.15"/>
<path d="M-36 880.851V704.243H-10.7702V754.702H64.9191V704.243H90.1489V880.851H64.9191V779.932H-10.7702V880.851H-36ZM115.379 880.851V729.472H140.608V754.702H216.298V729.472H241.528V880.851H216.298V779.932H140.608V880.851H115.379ZM140.608 729.472V704.243H216.298V729.472H140.608ZM291.987 880.851V855.621H367.676V880.851H291.987ZM367.676 855.621V830.392H392.906V855.621H367.676ZM266.757 855.621V729.472H291.987V855.621H266.757ZM367.676 754.702V729.472H392.906V754.702H367.676ZM291.987 729.472V704.243H367.676V729.472H291.987ZM519.055 880.851V805.162H544.285V880.851H519.055ZM493.825 805.162V779.932H519.055V805.162H493.825ZM493.825 754.702V729.472H519.055V754.702H493.825ZM418.136 880.851V704.243H443.366V754.702H493.825V779.932H443.366V880.851H418.136ZM519.055 729.472V704.243H544.285V729.472H519.055ZM569.515 880.851V729.472H594.744V754.702H670.434V729.472H695.664V880.851H670.434V779.932H594.744V880.851H569.515ZM594.744 729.472V704.243H670.434V729.472H594.744ZM771.353 880.851V729.472H720.893V704.243H847.042V729.472H796.583V880.851H771.353ZM872.272 880.851V704.243H897.502V754.702H973.191V704.243H998.421V880.851H973.191V779.932H897.502V880.851H872.272ZM1048.88 880.851V855.621H1124.57V880.851H1048.88ZM1023.65 855.621V729.472H1048.88V855.621H1023.65ZM1124.57 855.621V729.472H1149.8V855.621H1124.57ZM1048.88 729.472V704.243H1124.57V729.472H1048.88ZM1225.49 779.932V754.702H1250.72V779.932H1225.49ZM1175.03 880.851V704.243H1200.26V729.472H1225.49V754.702H1200.26V880.851H1175.03ZM1275.95 880.851V805.162H1250.72V779.932H1275.95V704.243H1301.18V880.851H1275.95Z" fill="black" fill-opacity="0.1"/>
<path d="M-36 1158.85V982.243H-10.7702V1032.7H64.9191V982.243H90.1489V1158.85H64.9191V1057.93H-10.7702V1158.85H-36ZM115.379 1158.85V1007.47H140.608V1032.7H216.298V1007.47H241.528V1158.85H216.298V1057.93H140.608V1158.85H115.379ZM140.608 1007.47V982.243H216.298V1007.47H140.608ZM291.987 1158.85V1133.62H367.676V1158.85H291.987ZM367.676 1133.62V1108.39H392.906V1133.62H367.676ZM266.757 1133.62V1007.47H291.987V1133.62H266.757ZM367.676 1032.7V1007.47H392.906V1032.7H367.676ZM291.987 1007.47V982.243H367.676V1007.47H291.987ZM519.055 1158.85V1083.16H544.285V1158.85H519.055ZM493.825 1083.16V1057.93H519.055V1083.16H493.825ZM493.825 1032.7V1007.47H519.055V1032.7H493.825ZM418.136 1158.85V982.243H443.366V1032.7H493.825V1057.93H443.366V1158.85H418.136ZM519.055 1007.47V982.243H544.285V1007.47H519.055ZM569.515 1158.85V1007.47H594.744V1032.7H670.434V1007.47H695.664V1158.85H670.434V1057.93H594.744V1158.85H569.515ZM594.744 1007.47V982.243H670.434V1007.47H594.744ZM771.353 1158.85V1007.47H720.893V982.243H847.042V1007.47H796.583V1158.85H771.353ZM872.272 1158.85V982.243H897.502V1032.7H973.191V982.243H998.421V1158.85H973.191V1057.93H897.502V1158.85H872.272ZM1048.88 1158.85V1133.62H1124.57V1158.85H1048.88ZM1023.65 1133.62V1007.47H1048.88V1133.62H1023.65ZM1124.57 1133.62V1007.47H1149.8V1133.62H1124.57ZM1048.88 1007.47V982.243H1124.57V1007.47H1048.88ZM1225.49 1057.93V1032.7H1250.72V1057.93H1225.49ZM1175.03 1158.85V982.243H1200.26V1007.47H1225.49V1032.7H1200.26V1158.85H1175.03ZM1275.95 1158.85V1083.16H1250.72V1057.93H1275.95V982.243H1301.18V1158.85H1275.95Z" fill="url(#paint1_linear_317_683)" fill-opacity="0.05"/>
</g>
<defs>
<linearGradient id="paint0_linear_317_683" x1="640" y1="0" x2="640" y2="1413" gradientUnits="userSpaceOnUse">
<stop stop-color="#E7E6E6"/>
<stop offset="1" stop-color="#4ADE80"/>
</linearGradient>
<linearGradient id="paint1_linear_317_683" x1="726.5" y1="-143" x2="726.5" y2="1250.64" gradientUnits="userSpaceOnUse">
<stop stop-color="white"/>
<stop offset="1" stop-color="#E8E8E8"/>
</linearGradient>
<clipPath id="clip0_317_683">
<rect width="1280" height="832" fill="white"/>
</clipPath>
</defs>
</svg>
