<svg width="423" height="643" viewBox="0 0 423 643" fill="none" xmlns="http://www.w3.org/2000/svg">
<path d="M0 40.3665V35.0398H5.3267V8.40625H0V3.07955H15.9801V8.40625H10.6534V35.0398H15.9801V40.3665H0ZM31.9602 19.0597V13.733H37.2869V19.0597H31.9602ZM21.3068 40.3665V3.07955H26.6335V8.40625H31.9602V13.733H26.6335V40.3665H21.3068ZM42.6136 40.3665V24.3864H37.2869V19.0597H42.6136V3.07955H47.9403V40.3665H42.6136ZM74.5739 35.0398V8.40625H79.9006V35.0398H74.5739ZM53.267 40.3665V3.07955H74.5739V8.40625H58.5937V35.0398H74.5739V40.3665H53.267ZM85.2273 40.3665V35.0398H90.554V8.40625H85.2273V3.07955H101.207V8.40625H95.8807V35.0398H101.207V40.3665H85.2273ZM106.534 40.3665V8.40625H111.861V13.733H127.841V8.40625H133.168V40.3665H127.841V19.0597H111.861V40.3665H106.534ZM111.861 8.40625V3.07955H127.841V8.40625H111.861ZM138.494 19.0597V13.733H143.821V19.0597H138.494ZM143.821 13.733V3.07955H149.148V13.733H143.821ZM159.801 40.3665V35.0398H175.781V40.3665H159.801ZM154.474 35.0398V29.7131H159.801V35.0398H154.474ZM175.781 35.0398V19.0597H181.108V35.0398H175.781ZM159.801 19.0597V13.733H175.781V19.0597H159.801ZM154.474 13.733V8.40625H159.801V13.733H154.474ZM159.801 8.40625V3.07955H181.108V8.40625H159.801ZM197.088 40.3665V3.07955H202.415V35.0398H223.722V40.3665H197.088ZM229.048 40.3665V8.40625H234.375V13.733H250.355V8.40625H255.682V40.3665H250.355V19.0597H234.375V40.3665H229.048ZM234.375 8.40625V3.07955H250.355V8.40625H234.375ZM282.315 40.3665V19.0597H287.642V40.3665H282.315ZM282.315 13.733V8.40625H287.642V13.733H282.315ZM261.009 40.3665V3.07955H282.315V8.40625H266.335V13.733H282.315V19.0597H266.335V40.3665H261.009ZM298.295 40.3665V35.0398H314.276V40.3665H298.295ZM314.276 35.0398V19.0597H303.622V13.733H319.602V35.0398H314.276ZM292.969 35.0398V8.40625H298.295V35.0398H292.969ZM298.295 8.40625V3.07955H319.602V8.40625H298.295ZM324.929 40.3665V3.07955H351.563V8.40625H330.256V13.733H340.909V19.0597H330.256V35.0398H351.563V40.3665H324.929ZM362.216 40.3665V35.0398H378.196V40.3665H362.216ZM356.889 35.0398V29.7131H362.216V35.0398H356.889ZM378.196 35.0398V19.0597H383.523V35.0398H378.196ZM362.216 19.0597V13.733H378.196V19.0597H362.216ZM356.889 13.733V8.40625H362.216V13.733H356.889ZM362.216 8.40625V3.07955H383.523V8.40625H362.216ZM399.503 40.3665V8.40625H388.849V3.07955H415.483V8.40625H404.83V40.3665H399.503ZM15 82.5V75H22.5V82.5H15ZM0 112.5V60H7.5V67.5H15V75H7.5V112.5H0ZM30 112.5V75H22.5V67.5H30V60H37.5V112.5H30ZM52.5 112.5V105H75V112.5H52.5ZM45 105V60H52.5V105H45ZM75 105V60H82.5V105H75ZM90 112.5V60H97.5V105H127.5V112.5H90ZM150 112.5V67.5H135V60H172.5V67.5H157.5V112.5H150ZM180 112.5V105H187.5V67.5H180V60H202.5V67.5H195V105H202.5V112.5H180ZM217.5 112.5V105H240V112.5H217.5ZM240 105V97.5H247.5V105H240ZM210 105V67.5H217.5V105H210ZM240 75V67.5H247.5V75H240ZM217.5 67.5V60H240V67.5H217.5ZM255 112.5V60H262.5V75H285V60H292.5V112.5H285V82.5H262.5V112.5H255ZM300 112.5V67.5H307.5V75H330V67.5H337.5V112.5H330V82.5H307.5V112.5H300ZM307.5 67.5V60H330V67.5H307.5ZM345 112.5V105H352.5V67.5H345V60H367.5V67.5H360V105H367.5V112.5H345ZM390 82.5V75H397.5V82.5H390ZM375 112.5V60H382.5V67.5H390V75H382.5V112.5H375ZM405 112.5V90H397.5V82.5H405V60H412.5V112.5H405ZM0 197.625V142.5H7.875V158.25H31.5V142.5H39.375V197.625H31.5V166.125H7.875V197.625H0ZM47.25 197.625V150.375H55.125V158.25H78.75V150.375H86.625V197.625H78.75V166.125H55.125V197.625H47.25ZM55.125 150.375V142.5H78.75V150.375H55.125ZM102.375 197.625V189.75H126V197.625H102.375ZM126 189.75V181.875H133.875V189.75H126ZM94.5 189.75V150.375H102.375V189.75H94.5ZM126 158.25V150.375H133.875V158.25H126ZM102.375 150.375V142.5H126V150.375H102.375ZM173.25 197.625V174H181.125V197.625H173.25ZM165.375 174V166.125H173.25V174H165.375ZM165.375 158.25V150.375H173.25V158.25H165.375ZM141.75 197.625V142.5H149.625V158.25H165.375V166.125H149.625V197.625H141.75ZM173.25 150.375V142.5H181.125V150.375H173.25ZM189 197.625V150.375H196.875V158.25H220.5V150.375H228.375V197.625H220.5V166.125H196.875V197.625H189ZM196.875 150.375V142.5H220.5V150.375H196.875ZM252 197.625V150.375H236.25V142.5H275.625V150.375H259.875V197.625H252ZM283.5 197.625V142.5H291.375V158.25H315V142.5H322.875V197.625H315V166.125H291.375V197.625H283.5ZM338.625 197.625V189.75H362.25V197.625H338.625ZM330.75 189.75V150.375H338.625V189.75H330.75ZM362.25 189.75V150.375H370.125V189.75H362.25ZM338.625 150.375V142.5H362.25V150.375H338.625ZM393.75 166.125V158.25H401.625V166.125H393.75ZM378 197.625V142.5H385.875V150.375H393.75V158.25H385.875V197.625H378ZM409.5 197.625V174H401.625V166.125H409.5V142.5H417.375V197.625H409.5Z" fill="black"/>
<path d="M0 267.625V212.5H7.875V228.25H31.5V212.5H39.375V267.625H31.5V236.125H7.875V267.625H0ZM47.25 267.625V220.375H55.125V228.25H78.75V220.375H86.625V267.625H78.75V236.125H55.125V267.625H47.25ZM55.125 220.375V212.5H78.75V220.375H55.125ZM102.375 267.625V259.75H126V267.625H102.375ZM126 259.75V251.875H133.875V259.75H126ZM94.5 259.75V220.375H102.375V259.75H94.5ZM126 228.25V220.375H133.875V228.25H126ZM102.375 220.375V212.5H126V220.375H102.375ZM173.25 267.625V244H181.125V267.625H173.25ZM165.375 244V236.125H173.25V244H165.375ZM165.375 228.25V220.375H173.25V228.25H165.375ZM141.75 267.625V212.5H149.625V228.25H165.375V236.125H149.625V267.625H141.75ZM173.25 220.375V212.5H181.125V220.375H173.25ZM189 267.625V220.375H196.875V228.25H220.5V220.375H228.375V267.625H220.5V236.125H196.875V267.625H189ZM196.875 220.375V212.5H220.5V220.375H196.875ZM252 267.625V220.375H236.25V212.5H275.625V220.375H259.875V267.625H252ZM283.5 267.625V212.5H291.375V228.25H315V212.5H322.875V267.625H315V236.125H291.375V267.625H283.5ZM338.625 267.625V259.75H362.25V267.625H338.625ZM330.75 259.75V220.375H338.625V259.75H330.75ZM362.25 259.75V220.375H370.125V259.75H362.25ZM338.625 220.375V212.5H362.25V220.375H338.625ZM393.75 236.125V228.25H401.625V236.125H393.75ZM378 267.625V212.5H385.875V220.375H393.75V228.25H385.875V267.625H378ZM409.5 267.625V244H401.625V236.125H409.5V212.5H417.375V267.625H409.5Z" fill="black" fill-opacity="0.5"/>
<path d="M0 354.625V299.5H7.875V315.25H31.5V299.5H39.375V354.625H31.5V323.125H7.875V354.625H0ZM47.25 354.625V307.375H55.125V315.25H78.75V307.375H86.625V354.625H78.75V323.125H55.125V354.625H47.25ZM55.125 307.375V299.5H78.75V307.375H55.125ZM102.375 354.625V346.75H126V354.625H102.375ZM126 346.75V338.875H133.875V346.75H126ZM94.5 346.75V307.375H102.375V346.75H94.5ZM126 315.25V307.375H133.875V315.25H126ZM102.375 307.375V299.5H126V307.375H102.375ZM173.25 354.625V331H181.125V354.625H173.25ZM165.375 331V323.125H173.25V331H165.375ZM165.375 315.25V307.375H173.25V315.25H165.375ZM141.75 354.625V299.5H149.625V315.25H165.375V323.125H149.625V354.625H141.75ZM173.25 307.375V299.5H181.125V307.375H173.25ZM189 354.625V307.375H196.875V315.25H220.5V307.375H228.375V354.625H220.5V323.125H196.875V354.625H189ZM196.875 307.375V299.5H220.5V307.375H196.875ZM252 354.625V307.375H236.25V299.5H275.625V307.375H259.875V354.625H252ZM283.5 354.625V299.5H291.375V315.25H315V299.5H322.875V354.625H315V323.125H291.375V354.625H283.5ZM338.625 354.625V346.75H362.25V354.625H338.625ZM330.75 346.75V307.375H338.625V346.75H330.75ZM362.25 346.75V307.375H370.125V346.75H362.25ZM338.625 307.375V299.5H362.25V307.375H338.625ZM393.75 323.125V315.25H401.625V323.125H393.75ZM378 354.625V299.5H385.875V307.375H393.75V315.25H385.875V354.625H378ZM409.5 354.625V331H401.625V323.125H409.5V299.5H417.375V354.625H409.5Z" fill="black" fill-opacity="0.3"/>
<path d="M0 441.625V386.5H7.875V402.25H31.5V386.5H39.375V441.625H31.5V410.125H7.875V441.625H0ZM47.25 441.625V394.375H55.125V402.25H78.75V394.375H86.625V441.625H78.75V410.125H55.125V441.625H47.25ZM55.125 394.375V386.5H78.75V394.375H55.125ZM102.375 441.625V433.75H126V441.625H102.375ZM126 433.75V425.875H133.875V433.75H126ZM94.5 433.75V394.375H102.375V433.75H94.5ZM126 402.25V394.375H133.875V402.25H126ZM102.375 394.375V386.5H126V394.375H102.375ZM173.25 441.625V418H181.125V441.625H173.25ZM165.375 418V410.125H173.25V418H165.375ZM165.375 402.25V394.375H173.25V402.25H165.375ZM141.75 441.625V386.5H149.625V402.25H165.375V410.125H149.625V441.625H141.75ZM173.25 394.375V386.5H181.125V394.375H173.25ZM189 441.625V394.375H196.875V402.25H220.5V394.375H228.375V441.625H220.5V410.125H196.875V441.625H189ZM196.875 394.375V386.5H220.5V394.375H196.875ZM252 441.625V394.375H236.25V386.5H275.625V394.375H259.875V441.625H252ZM283.5 441.625V386.5H291.375V402.25H315V386.5H322.875V441.625H315V410.125H291.375V441.625H283.5ZM338.625 441.625V433.75H362.25V441.625H338.625ZM330.75 433.75V394.375H338.625V433.75H330.75ZM362.25 433.75V394.375H370.125V433.75H362.25ZM338.625 394.375V386.5H362.25V394.375H338.625ZM393.75 410.125V402.25H401.625V410.125H393.75ZM378 441.625V386.5H385.875V394.375H393.75V402.25H385.875V441.625H378ZM409.5 441.625V418H401.625V410.125H409.5V386.5H417.375V441.625H409.5Z" fill="black" fill-opacity="0.15"/>
<path d="M0 528.625V473.5H7.875V489.25H31.5V473.5H39.375V528.625H31.5V497.125H7.875V528.625H0ZM47.25 528.625V481.375H55.125V489.25H78.75V481.375H86.625V528.625H78.75V497.125H55.125V528.625H47.25ZM55.125 481.375V473.5H78.75V481.375H55.125ZM102.375 528.625V520.75H126V528.625H102.375ZM126 520.75V512.875H133.875V520.75H126ZM94.5 520.75V481.375H102.375V520.75H94.5ZM126 489.25V481.375H133.875V489.25H126ZM102.375 481.375V473.5H126V481.375H102.375ZM173.25 528.625V505H181.125V528.625H173.25ZM165.375 505V497.125H173.25V505H165.375ZM165.375 489.25V481.375H173.25V489.25H165.375ZM141.75 528.625V473.5H149.625V489.25H165.375V497.125H149.625V528.625H141.75ZM173.25 481.375V473.5H181.125V481.375H173.25ZM189 528.625V481.375H196.875V489.25H220.5V481.375H228.375V528.625H220.5V497.125H196.875V528.625H189ZM196.875 481.375V473.5H220.5V481.375H196.875ZM252 528.625V481.375H236.25V473.5H275.625V481.375H259.875V528.625H252ZM283.5 528.625V473.5H291.375V489.25H315V473.5H322.875V528.625H315V497.125H291.375V528.625H283.5ZM338.625 528.625V520.75H362.25V528.625H338.625ZM330.75 520.75V481.375H338.625V520.75H330.75ZM362.25 520.75V481.375H370.125V520.75H362.25ZM338.625 481.375V473.5H362.25V481.375H338.625ZM393.75 497.125V489.25H401.625V497.125H393.75ZM378 528.625V473.5H385.875V481.375H393.75V489.25H385.875V528.625H378ZM409.5 528.625V505H401.625V497.125H409.5V473.5H417.375V528.625H409.5Z" fill="black" fill-opacity="0.1"/>
<path d="M0 615.625V560.5H7.875V576.25H31.5V560.5H39.375V615.625H31.5V584.125H7.875V615.625H0ZM47.25 615.625V568.375H55.125V576.25H78.75V568.375H86.625V615.625H78.75V584.125H55.125V615.625H47.25ZM55.125 568.375V560.5H78.75V568.375H55.125ZM102.375 615.625V607.75H126V615.625H102.375ZM126 607.75V599.875H133.875V607.75H126ZM94.5 607.75V568.375H102.375V607.75H94.5ZM126 576.25V568.375H133.875V576.25H126ZM102.375 568.375V560.5H126V568.375H102.375ZM173.25 615.625V592H181.125V615.625H173.25ZM165.375 592V584.125H173.25V592H165.375ZM165.375 576.25V568.375H173.25V576.25H165.375ZM141.75 615.625V560.5H149.625V576.25H165.375V584.125H149.625V615.625H141.75ZM173.25 568.375V560.5H181.125V568.375H173.25ZM189 615.625V568.375H196.875V576.25H220.5V568.375H228.375V615.625H220.5V584.125H196.875V615.625H189ZM196.875 568.375V560.5H220.5V568.375H196.875ZM252 615.625V568.375H236.25V560.5H275.625V568.375H259.875V615.625H252ZM283.5 615.625V560.5H291.375V576.25H315V560.5H322.875V615.625H315V584.125H291.375V615.625H283.5ZM338.625 615.625V607.75H362.25V615.625H338.625ZM330.75 607.75V568.375H338.625V607.75H330.75ZM362.25 607.75V568.375H370.125V607.75H362.25ZM338.625 568.375V560.5H362.25V568.375H338.625ZM393.75 584.125V576.25H401.625V584.125H393.75ZM378 615.625V560.5H385.875V568.375H393.75V576.25H385.875V615.625H378ZM409.5 615.625V592H401.625V584.125H409.5V560.5H417.375V615.625H409.5Z" fill="url(#paint0_linear_303_692)" fill-opacity="0.05"/>
<path d="M359.25 334.375H56.75V526.875H359.25V334.375Z" fill="url(#paint1_linear_303_692)"/>
<path d="M249.25 532.649H166.75V602.5H249.25V532.649Z" fill="url(#paint2_linear_303_692)"/>
<g filter="url(#filter0_bi_303_692)">
<path d="M290.5 581.875H125.5C121.703 581.875 118.625 584.953 118.625 588.75V595.625C118.625 599.422 121.703 602.5 125.5 602.5H290.5C294.297 602.5 297.375 599.422 297.375 595.625V588.75C297.375 584.953 294.297 581.875 290.5 581.875Z" fill="url(#paint3_linear_303_692)" fill-opacity="0.2"/>
<path d="M125.5 583.594H290.5C293.348 583.594 295.656 585.902 295.656 588.75V595.625C295.656 598.473 293.348 600.781 290.5 600.781H125.5C122.652 600.781 120.344 598.473 120.344 595.625V588.75C120.344 585.902 122.652 583.594 125.5 583.594Z" stroke="url(#paint4_linear_303_692)" stroke-opacity="0.1" stroke-width="3.4375"/>
</g>
<g filter="url(#filter1_bi_303_692)">
<path d="M352.106 339.867H63.8936V521.383H352.106V339.867Z" fill="url(#paint5_linear_303_692)" fill-opacity="0.2"/>
</g>
<g filter="url(#filter2_bi_303_692)">
<path d="M352.375 561.25H63.625C56.0281 561.25 49.875 555.097 49.875 547.5V341.25C49.875 333.653 56.0281 327.5 63.625 327.5H352.375C359.972 327.5 366.125 333.653 366.125 341.25V547.5C366.125 555.097 359.972 561.25 352.375 561.25ZM63.625 348.125V513.125C63.625 516.92 66.705 520 70.5 520H345.5C349.295 520 352.375 516.92 352.375 513.125V348.125C352.375 344.33 349.295 341.25 345.5 341.25H70.5C66.705 341.25 63.625 344.33 63.625 348.125Z" fill="url(#paint6_linear_303_692)" fill-opacity="0.2"/>
<path d="M352.375 559.531H63.625C56.9774 559.531 51.5938 554.148 51.5938 547.5V341.25C51.5938 334.602 56.9774 329.219 63.625 329.219H352.375C359.023 329.219 364.406 334.602 364.406 341.25V547.5C364.406 554.148 359.023 559.531 352.375 559.531ZM61.9062 348.125V513.125C61.9062 517.869 65.7558 521.719 70.5 521.719H345.5C350.244 521.719 354.094 517.869 354.094 513.125V348.125C354.094 343.381 350.244 339.531 345.5 339.531H70.5C65.7558 339.531 61.9062 343.381 61.9062 348.125Z" stroke="url(#paint7_linear_303_692)" stroke-opacity="0.1" stroke-width="3.4375"/>
</g>
<g filter="url(#filter3_i_303_692)">
<path d="M183.347 441.529L150.395 408.577L178.486 380.486C181.16 377.791 181.14 373.432 178.438 370.764C177.297 369.637 175.798 368.936 174.196 368.798L91.6961 361.923C87.9149 361.593 84.5805 364.398 84.2573 368.179C84.223 368.558 84.223 368.943 84.2573 369.321L91.1323 451.821C91.4623 455.602 94.7898 458.407 98.578 458.077C100.18 457.939 101.679 457.245 102.82 456.111L130.911 428.019L163.863 460.971C169.329 466.244 178.032 466.093 183.305 460.634C188.455 455.306 188.455 446.857 183.305 441.529H183.354H183.347Z" fill="white" fill-opacity="0.16"/>
</g>
<defs>
<filter id="filter0_bi_303_692" x="77.375" y="540.625" width="261.25" height="103.125" filterUnits="userSpaceOnUse" color-interpolation-filters="sRGB">
<feFlood flood-opacity="0" result="BackgroundImageFix"/>
<feGaussianBlur in="BackgroundImageFix" stdDeviation="20.625"/>
<feComposite in2="SourceAlpha" operator="in" result="effect1_backgroundBlur_303_692"/>
<feBlend mode="normal" in="SourceGraphic" in2="effect1_backgroundBlur_303_692" result="shape"/>
<feColorMatrix in="SourceAlpha" type="matrix" values="0 0 0 0 0 0 0 0 0 0 0 0 0 0 0 0 0 0 127 0" result="hardAlpha"/>
<feOffset dy="6.875"/>
<feGaussianBlur stdDeviation="13.75"/>
<feComposite in2="hardAlpha" operator="arithmetic" k2="-1" k3="1"/>
<feColorMatrix type="matrix" values="0 0 0 0 1 0 0 0 0 1 0 0 0 0 1 0 0 0 0.4 0"/>
<feBlend mode="normal" in2="shape" result="effect2_innerShadow_303_692"/>
</filter>
<filter id="filter1_bi_303_692" x="22.6436" y="298.617" width="370.713" height="264.016" filterUnits="userSpaceOnUse" color-interpolation-filters="sRGB">
<feFlood flood-opacity="0" result="BackgroundImageFix"/>
<feGaussianBlur in="BackgroundImageFix" stdDeviation="20.625"/>
<feComposite in2="SourceAlpha" operator="in" result="effect1_backgroundBlur_303_692"/>
<feBlend mode="normal" in="SourceGraphic" in2="effect1_backgroundBlur_303_692" result="shape"/>
<feColorMatrix in="SourceAlpha" type="matrix" values="0 0 0 0 0 0 0 0 0 0 0 0 0 0 0 0 0 0 127 0" result="hardAlpha"/>
<feOffset dy="6.875"/>
<feGaussianBlur stdDeviation="13.75"/>
<feComposite in2="hardAlpha" operator="arithmetic" k2="-1" k3="1"/>
<feColorMatrix type="matrix" values="0 0 0 0 1 0 0 0 0 1 0 0 0 0 1 0 0 0 0.4 0"/>
<feBlend mode="normal" in2="shape" result="effect2_innerShadow_303_692"/>
</filter>
<filter id="filter2_bi_303_692" x="8.625" y="286.25" width="398.75" height="316.25" filterUnits="userSpaceOnUse" color-interpolation-filters="sRGB">
<feFlood flood-opacity="0" result="BackgroundImageFix"/>
<feGaussianBlur in="BackgroundImageFix" stdDeviation="20.625"/>
<feComposite in2="SourceAlpha" operator="in" result="effect1_backgroundBlur_303_692"/>
<feBlend mode="normal" in="SourceGraphic" in2="effect1_backgroundBlur_303_692" result="shape"/>
<feColorMatrix in="SourceAlpha" type="matrix" values="0 0 0 0 0 0 0 0 0 0 0 0 0 0 0 0 0 0 127 0" result="hardAlpha"/>
<feOffset dy="6.875"/>
<feGaussianBlur stdDeviation="13.75"/>
<feComposite in2="hardAlpha" operator="arithmetic" k2="-1" k3="1"/>
<feColorMatrix type="matrix" values="0 0 0 0 1 0 0 0 0 1 0 0 0 0 1 0 0 0 0.4 0"/>
<feBlend mode="normal" in2="shape" result="effect2_innerShadow_303_692"/>
</filter>
<filter id="filter3_i_303_692" x="84.2316" y="361.897" width="102.936" height="109.807" filterUnits="userSpaceOnUse" color-interpolation-filters="sRGB">
<feFlood flood-opacity="0" result="BackgroundImageFix"/>
<feBlend mode="normal" in="SourceGraphic" in2="BackgroundImageFix" result="shape"/>
<feColorMatrix in="SourceAlpha" type="matrix" values="0 0 0 0 0 0 0 0 0 0 0 0 0 0 0 0 0 0 127 0" result="hardAlpha"/>
<feOffset dy="6.875"/>
<feGaussianBlur stdDeviation="3.4375"/>
<feComposite in2="hardAlpha" operator="arithmetic" k2="-1" k3="1"/>
<feColorMatrix type="matrix" values="0 0 0 0 1 0 0 0 0 1 0 0 0 0 1 0 0 0 0.4 0"/>
<feBlend mode="normal" in2="shape" result="effect1_innerShadow_303_692"/>
</filter>
<linearGradient id="paint0_linear_303_692" x1="238" y1="208" x2="238" y2="643" gradientUnits="userSpaceOnUse">
<stop stop-color="white"/>
<stop offset="1" stop-color="#E8E8E8"/>
</linearGradient>
<linearGradient id="paint1_linear_303_692" x1="56.75" y1="334.375" x2="383.964" y2="464.938" gradientUnits="userSpaceOnUse">
<stop stop-color="#75A5FF"/>
<stop offset="0.703125" stop-color="#2339FF"/>
</linearGradient>
<linearGradient id="paint2_linear_303_692" x1="166.75" y1="532.649" x2="261.662" y2="561.113" gradientUnits="userSpaceOnUse">
<stop stop-color="#75A5FF"/>
<stop offset="0.703125" stop-color="#2339FF"/>
</linearGradient>
<linearGradient id="paint3_linear_303_692" x1="118.625" y1="581.875" x2="156.987" y2="666.295" gradientUnits="userSpaceOnUse">
<stop stop-color="#83E9FF"/>
<stop offset="0.453125" stop-color="#85A0FF"/>
</linearGradient>
<linearGradient id="paint4_linear_303_692" x1="124.211" y1="582.813" x2="297.375" y2="582.813" gradientUnits="userSpaceOnUse">
<stop stop-color="#3CDEB6"/>
<stop offset="0.65625" stop-color="#364AFF"/>
</linearGradient>
<linearGradient id="paint5_linear_303_692" x1="63.8936" y1="339.867" x2="374.758" y2="465.199" gradientUnits="userSpaceOnUse">
<stop stop-color="#83E9FF"/>
<stop offset="0.453125" stop-color="#85A0FF"/>
</linearGradient>
<linearGradient id="paint6_linear_303_692" x1="49.875" y1="327.5" x2="404.567" y2="449.35" gradientUnits="userSpaceOnUse">
<stop stop-color="#83E9FF"/>
<stop offset="0.453125" stop-color="#85A0FF"/>
</linearGradient>
<linearGradient id="paint7_linear_303_692" x1="59.7578" y1="338.125" x2="366.125" y2="338.125" gradientUnits="userSpaceOnUse">
<stop stop-color="#3CDEB6"/>
<stop offset="0.65625" stop-color="#364AFF"/>
</linearGradient>
</defs>
</svg>
